<svg width="781" height="210" viewBox="0 0 781 210" fill="none" xmlns="http://www.w3.org/2000/svg">
<path d="M5.71203 154.056C4.59203 152.488 4.08803 150.472 4.20003 148.008C4.31203 145.544 5.76803 143.416 8.56803 141.624C10.36 140.504 12.264 140.056 14.28 140.28C16.296 140.392 18.256 141.4 20.16 143.304C23.408 146.552 26.824 149.072 30.408 150.864C33.992 152.656 38.472 153.552 43.848 153.552C45.528 153.44 47.376 153.216 49.392 152.88C51.408 152.432 53.144 151.536 54.6 150.192C56.168 148.736 56.952 146.552 56.952 143.64C56.952 141.176 56.112 139.216 54.432 137.76C52.752 136.304 50.512 135.072 47.712 134.064C45.024 133.056 42 132.104 38.64 131.208C35.168 130.2 31.584 129.08 27.888 127.848C24.304 126.616 21 125.048 17.976 123.144C14.952 121.128 12.488 118.496 10.584 115.248C8.68003 112 7.72803 107.912 7.72803 102.984C7.72803 97.3841 9.29603 92.6241 12.432 88.7041C15.568 84.7841 19.6 81.7601 24.528 79.6321C29.568 77.5041 34.832 76.4401 40.32 76.4401C43.792 76.4401 47.432 76.8881 51.24 77.784C55.048 78.5681 58.688 79.9121 62.16 81.8161C65.632 83.6081 68.544 86.0161 70.896 89.0401C72.128 90.7201 72.856 92.736 73.08 95.0881C73.304 97.4401 72.24 99.5681 69.888 101.472C68.208 102.816 66.248 103.432 64.008 103.32C61.768 103.096 59.92 102.312 58.464 100.968C56.56 98.5041 53.984 96.5441 50.736 95.0881C47.6 93.632 43.96 92.9041 39.816 92.9041C38.136 92.9041 36.288 93.128 34.272 93.576C32.368 93.912 30.688 94.7521 29.232 96.0961C27.776 97.3281 27.048 99.3441 27.048 102.144C27.048 104.72 27.888 106.792 29.568 108.36C31.248 109.816 33.488 111.048 36.288 112.056C39.2 112.952 42.28 113.848 45.528 114.744C48.888 115.64 52.304 116.704 55.776 117.936C59.248 119.168 62.44 120.792 65.352 122.808C68.264 124.824 70.616 127.456 72.408 130.704C74.2 133.84 75.096 137.872 75.096 142.8C75.096 148.512 73.416 153.384 70.056 157.416C66.696 161.448 62.496 164.528 57.456 166.656C52.416 168.672 47.264 169.68 42 169.68C35.392 169.68 28.784 168.56 22.176 166.32C15.568 163.968 10.08 159.88 5.71203 154.056ZM166.863 76.4401C169.775 76.4401 172.183 77.3921 174.087 79.2961C175.991 81.2001 176.943 83.6641 176.943 86.6881V157.752C176.943 160.664 175.991 163.128 174.087 165.144C172.183 167.048 169.775 168 166.863 168C163.951 168 161.543 167.048 159.639 165.144C157.735 163.128 156.783 160.664 156.783 157.752V149.52L160.479 151.032C160.479 152.488 159.695 154.28 158.127 156.408C156.559 158.424 154.431 160.44 151.743 162.456C149.055 164.472 145.863 166.208 142.167 167.664C138.583 169.008 134.663 169.68 130.407 169.68C122.679 169.68 115.679 167.72 109.407 163.8C103.135 159.768 98.1514 154.28 94.4554 147.336C90.8714 140.28 89.0794 132.216 89.0794 123.144C89.0794 113.96 90.8714 105.896 94.4554 98.9521C98.1514 91.8961 103.079 86.4081 109.239 82.4881C115.399 78.4561 122.231 76.4401 129.735 76.4401C134.551 76.4401 138.975 77.1681 143.007 78.6241C147.039 80.0801 150.511 81.9281 153.423 84.1681C156.447 86.4081 158.743 88.7041 160.311 91.0561C161.991 93.2961 162.831 95.2001 162.831 96.7681L156.783 98.9521V86.6881C156.783 83.7761 157.735 81.368 159.639 79.4641C161.543 77.4481 163.951 76.4401 166.863 76.4401ZM132.927 151.2C137.855 151.2 142.167 149.968 145.863 147.504C149.559 145.04 152.415 141.68 154.431 137.424C156.559 133.168 157.623 128.408 157.623 123.144C157.623 117.768 156.559 112.952 154.431 108.696C152.415 104.44 149.559 101.08 145.863 98.6161C142.167 96.1521 137.855 94.9201 132.927 94.9201C128.111 94.9201 123.855 96.1521 120.159 98.6161C116.463 101.08 113.551 104.44 111.423 108.696C109.407 112.952 108.399 117.768 108.399 123.144C108.399 128.408 109.407 133.168 111.423 137.424C113.551 141.68 116.463 145.04 120.159 147.504C123.855 149.968 128.111 151.2 132.927 151.2ZM210.532 168C207.62 168 205.212 167.048 203.308 165.144C201.404 163.128 200.452 160.664 200.452 157.752V53.9281C200.452 51.0161 201.404 48.6081 203.308 46.7041C205.212 44.6881 207.62 43.6801 210.532 43.6801C213.444 43.6801 215.852 44.6881 217.756 46.7041C219.66 48.6081 220.612 51.0161 220.612 53.9281V157.752C220.612 160.664 219.66 163.128 217.756 165.144C215.852 167.048 213.444 168 210.532 168ZM263.956 78.1201C266.532 78.1201 268.772 79.1841 270.676 81.312C272.58 83.44 273.532 85.5121 273.532 87.5281C273.532 90.2161 272.188 92.736 269.5 95.0881L218.932 141.624L218.092 118.44L256.564 81.312C258.692 79.1841 261.156 78.1201 263.956 78.1201ZM266.476 167.832C263.564 167.832 261.1 166.712 259.084 164.472L228.004 131.544L243.292 117.432L273.532 150.36C275.66 152.6 276.724 155.12 276.724 157.92C276.724 160.832 275.548 163.24 273.196 165.144C270.956 166.936 268.716 167.832 266.476 167.832ZM367.348 76.4401C370.26 76.4401 372.668 77.3921 374.572 79.2961C376.476 81.2001 377.428 83.6641 377.428 86.6881V157.752C377.428 160.664 376.476 163.128 374.572 165.144C372.668 167.048 370.26 168 367.348 168C364.436 168 362.028 167.048 360.124 165.144C358.22 163.128 357.268 160.664 357.268 157.752V149.52L360.964 151.032C360.964 152.488 360.18 154.28 358.612 156.408C357.044 158.424 354.916 160.44 352.228 162.456C349.54 164.472 346.348 166.208 342.652 167.664C339.068 169.008 335.148 169.68 330.892 169.68C323.164 169.68 316.164 167.72 309.892 163.8C303.62 159.768 298.636 154.28 294.94 147.336C291.356 140.28 289.564 132.216 289.564 123.144C289.564 113.96 291.356 105.896 294.94 98.9521C298.636 91.8961 303.564 86.4081 309.724 82.4881C315.884 78.4561 322.716 76.4401 330.22 76.4401C335.036 76.4401 339.46 77.1681 343.492 78.6241C347.524 80.0801 350.996 81.9281 353.908 84.1681C356.932 86.4081 359.228 88.7041 360.796 91.0561C362.476 93.2961 363.316 95.2001 363.316 96.7681L357.268 98.9521V86.6881C357.268 83.7761 358.22 81.368 360.124 79.4641C362.028 77.4481 364.436 76.4401 367.348 76.4401ZM333.412 151.2C338.34 151.2 342.652 149.968 346.348 147.504C350.044 145.04 352.9 141.68 354.916 137.424C357.044 133.168 358.108 128.408 358.108 123.144C358.108 117.768 357.044 112.952 354.916 108.696C352.9 104.44 350.044 101.08 346.348 98.6161C342.652 96.1521 338.34 94.9201 333.412 94.9201C328.596 94.9201 324.34 96.1521 320.644 98.6161C316.948 101.08 314.036 104.44 311.908 108.696C309.892 112.952 308.884 117.768 308.884 123.144C308.884 128.408 309.892 133.168 311.908 137.424C314.036 141.68 316.948 145.04 320.644 147.504C324.34 149.968 328.596 151.2 333.412 151.2ZM447.304 76.4401C455.592 76.4401 461.864 78.1761 466.12 81.6481C470.488 85.1201 473.456 89.7681 475.024 95.5921C476.704 101.304 477.544 107.688 477.544 114.744V157.752C477.544 160.664 476.592 163.128 474.688 165.144C472.784 167.048 470.376 168 467.464 168C464.552 168 462.144 167.048 460.24 165.144C458.336 163.128 457.384 160.664 457.384 157.752V114.744C457.384 111.048 456.88 107.744 455.872 104.832C454.976 101.808 453.296 99.4001 450.832 97.6081C448.368 95.8161 444.84 94.9201 440.248 94.9201C435.768 94.9201 431.96 95.8161 428.824 97.6081C425.8 99.4001 423.448 101.808 421.768 104.832C420.2 107.744 419.416 111.048 419.416 114.744V157.752C419.416 160.664 418.464 163.128 416.56 165.144C414.656 167.048 412.248 168 409.336 168C406.424 168 404.016 167.048 402.112 165.144C400.208 163.128 399.256 160.664 399.256 157.752V88.368C399.256 85.4561 400.208 83.048 402.112 81.1441C404.016 79.1281 406.424 78.1201 409.336 78.1201C412.248 78.1201 414.656 79.1281 416.56 81.1441C418.464 83.048 419.416 85.4561 419.416 88.368V95.5921L416.896 95.0881C417.904 93.1841 419.36 91.1681 421.264 89.0401C423.168 86.8001 425.408 84.7281 427.984 82.8241C430.56 80.9201 433.472 79.4081 436.72 78.2881C439.968 77.0561 443.496 76.4401 447.304 76.4401ZM572.918 76.4401C575.83 76.4401 578.238 77.3921 580.142 79.2961C582.046 81.2001 582.998 83.6641 582.998 86.6881V157.752C582.998 160.664 582.046 163.128 580.142 165.144C578.238 167.048 575.83 168 572.918 168C570.006 168 567.598 167.048 565.694 165.144C563.79 163.128 562.838 160.664 562.838 157.752V149.52L566.534 151.032C566.534 152.488 565.75 154.28 564.182 156.408C562.614 158.424 560.486 160.44 557.798 162.456C555.11 164.472 551.918 166.208 548.222 167.664C544.638 169.008 540.718 169.68 536.462 169.68C528.734 169.68 521.734 167.72 515.462 163.8C509.19 159.768 504.206 154.28 500.51 147.336C496.926 140.28 495.134 132.216 495.134 123.144C495.134 113.96 496.926 105.896 500.51 98.9521C504.206 91.8961 509.134 86.4081 515.294 82.4881C521.454 78.4561 528.286 76.4401 535.79 76.4401C540.606 76.4401 545.03 77.1681 549.062 78.6241C553.094 80.0801 556.566 81.9281 559.478 84.1681C562.502 86.4081 564.798 88.7041 566.366 91.0561C568.046 93.2961 568.886 95.2001 568.886 96.7681L562.838 98.9521V86.6881C562.838 83.7761 563.79 81.368 565.694 79.4641C567.598 77.4481 570.006 76.4401 572.918 76.4401ZM538.982 151.2C543.91 151.2 548.222 149.968 551.918 147.504C555.614 145.04 558.47 141.68 560.486 137.424C562.614 133.168 563.678 128.408 563.678 123.144C563.678 117.768 562.614 112.952 560.486 108.696C558.47 104.44 555.614 101.08 551.918 98.6161C548.222 96.1521 543.91 94.9201 538.982 94.9201C534.166 94.9201 529.91 96.1521 526.214 98.6161C522.518 101.08 519.606 104.44 517.478 108.696C515.462 112.952 514.454 117.768 514.454 123.144C514.454 128.408 515.462 133.168 517.478 137.424C519.606 141.68 522.518 145.04 526.214 147.504C529.91 149.968 534.166 151.2 538.982 151.2ZM719.426 76.4401C722.338 76.4401 724.746 77.3921 726.65 79.2961C728.554 81.2001 729.506 83.6641 729.506 86.6881V157.752C729.506 160.664 728.554 163.128 726.65 165.144C724.746 167.048 722.338 168 719.426 168C716.514 168 714.106 167.048 712.202 165.144C710.298 163.128 709.346 160.664 709.346 157.752V149.52L713.042 151.032C713.042 152.488 712.258 154.28 710.69 156.408C709.122 158.424 706.994 160.44 704.306 162.456C701.618 164.472 698.426 166.208 694.73 167.664C691.146 169.008 687.226 169.68 682.97 169.68C675.242 169.68 668.242 167.72 661.97 163.8C655.698 159.768 650.714 154.28 647.018 147.336C643.434 140.28 641.642 132.216 641.642 123.144C641.642 113.96 643.434 105.896 647.018 98.9521C650.714 91.8961 655.642 86.4081 661.802 82.4881C667.962 78.4561 674.794 76.4401 682.298 76.4401C687.114 76.4401 691.538 77.1681 695.57 78.6241C699.602 80.0801 703.074 81.9281 705.986 84.1681C709.01 86.4081 711.306 88.7041 712.874 91.0561C714.554 93.2961 715.394 95.2001 715.394 96.7681L709.346 98.9521V86.6881C709.346 83.7761 710.298 81.368 712.202 79.4641C714.106 77.4481 716.514 76.4401 719.426 76.4401ZM685.49 151.2C690.418 151.2 694.73 149.968 698.426 147.504C702.122 145.04 704.978 141.68 706.994 137.424C709.122 133.168 710.186 128.408 710.186 123.144C710.186 117.768 709.122 112.952 706.994 108.696C704.978 104.44 702.122 101.08 698.426 98.6161C694.73 96.1521 690.418 94.9201 685.49 94.9201C680.674 94.9201 676.418 96.1521 672.722 98.6161C669.026 101.08 666.114 104.44 663.986 108.696C661.97 112.952 660.962 117.768 660.962 123.144C660.962 128.408 661.97 133.168 663.986 137.424C666.114 141.68 669.026 145.04 672.722 147.504C676.418 149.968 680.674 151.2 685.49 151.2ZM770.318 157.752C770.318 160.664 769.366 163.128 767.462 165.144C765.558 167.048 763.15 168 760.238 168C757.326 168 754.918 167.048 753.014 165.144C751.11 163.128 750.158 160.664 750.158 157.752V88.368C750.158 85.4561 751.11 83.048 753.014 81.1441C754.918 79.1281 757.326 78.1201 760.238 78.1201C763.15 78.1201 765.558 79.1281 767.462 81.1441C769.366 83.048 770.318 85.4561 770.318 88.368V157.752ZM760.07 67.2001C756.262 67.2001 753.574 66.5841 752.006 65.3521C750.438 64.1201 749.654 61.9361 749.654 58.8001V55.6081C749.654 52.3601 750.494 50.1761 752.174 49.0561C753.966 47.8241 756.654 47.2081 760.238 47.2081C764.158 47.2081 766.902 47.8241 768.47 49.0561C770.038 50.2881 770.822 52.4721 770.822 55.6081V58.8001C770.822 62.0481 769.982 64.288 768.302 65.5201C766.622 66.6401 763.878 67.2001 760.07 67.2001Z" fill="#1E1E1E"/>
<path d="M614.813 171C608.437 171 603 166.082 603 159.197C603 152.115 608.437 147 614.813 147C621.375 147 627 152.115 627 159.197C627 166.082 621.375 171 614.813 171Z" fill="#1E1E1E"/>
<path d="M759.813 69C753.437 69 748 64.082 748 57.1967C748 50.1148 753.437 45 759.813 45C766.375 45 772 50.1148 772 57.1967C772 64.082 766.375 69 759.813 69Z" fill="#1E1E1E"/>
</svg>
